<svg width="135" height="30" viewBox="0 0 135 30" fill="none" xmlns="http://www.w3.org/2000/svg">
<path d="M0.317229 29.0381C0.241229 28.6581 0.241229 28.2527 0.317229 27.8221C1.48256 27.7207 2.31856 27.6067 2.82523 27.4801C3.35723 27.3534 3.68656 27.1001 3.81323 26.7201C3.96523 26.3147 4.04123 25.6687 4.04123 24.7821V7.11206C4.04123 6.04806 3.9779 5.28806 3.85123 4.83206C3.72456 4.37606 3.39523 4.08473 2.86323 3.95806C2.33123 3.80606 1.4699 3.67939 0.279229 3.57806C0.203229 3.19806 0.203229 2.79273 0.279229 2.36206C0.785896 2.36206 1.40656 2.37473 2.14123 2.40006C2.90123 2.40006 3.64856 2.41273 4.38323 2.43806C5.1179 2.43806 5.71323 2.43806 6.16923 2.43806C6.62523 2.43806 7.2079 2.43806 7.91723 2.43806C8.6519 2.41273 9.38656 2.40006 10.1212 2.40006C10.8812 2.37473 11.4892 2.36206 11.9452 2.36206C12.0212 2.74206 12.0212 3.14739 11.9452 3.57806C10.7799 3.67939 9.93123 3.79339 9.39923 3.92006C8.86723 4.04673 8.5379 4.31273 8.41123 4.71806C8.28456 5.09806 8.22123 5.73139 8.22123 6.61806V14.1041H21.9012V7.11206C21.9012 6.04806 21.8379 5.28806 21.7112 4.83206C21.5846 4.37606 21.2679 4.08473 20.7612 3.95806C20.2546 3.80606 19.4059 3.67939 18.2152 3.57806C18.1646 3.19806 18.1646 2.79273 18.2152 2.36206C18.6966 2.36206 19.3046 2.37473 20.0392 2.40006C20.7739 2.40006 21.5086 2.41273 22.2432 2.43806C22.9779 2.43806 23.5732 2.43806 24.0292 2.43806C24.5359 2.43806 25.1439 2.43806 25.8532 2.43806C26.5626 2.41273 27.2719 2.40006 27.9812 2.40006C28.7159 2.37473 29.3366 2.36206 29.8432 2.36206C29.8939 2.74206 29.8939 3.14739 29.8432 3.57806C28.6526 3.67939 27.7912 3.79339 27.2592 3.92006C26.7272 4.04673 26.3979 4.31273 26.2712 4.71806C26.1446 5.09806 26.0812 5.73139 26.0812 6.61806V24.2881C26.0812 25.3267 26.1446 26.0867 26.2712 26.5681C26.3979 27.0241 26.7146 27.3281 27.2212 27.4801C27.7532 27.6067 28.6272 27.7207 29.8432 27.8221C29.8939 28.2527 29.8939 28.6581 29.8432 29.0381C29.3112 29.0381 28.6779 29.0254 27.9432 29.0001C27.2086 29.0001 26.4739 29.0001 25.7392 29.0001C25.0299 28.9747 24.4346 28.9621 23.9532 28.9621C23.4972 28.9621 22.9146 28.9747 22.2052 29.0001C21.4959 29.0001 20.7866 29.0001 20.0772 29.0001C19.3679 29.0254 18.7599 29.0381 18.2532 29.0381C18.1772 28.6581 18.1772 28.2527 18.2532 27.8221C19.4186 27.7207 20.2546 27.6067 20.7612 27.4801C21.2679 27.3534 21.5846 27.1001 21.7112 26.7201C21.8379 26.3147 21.9012 25.6687 21.9012 24.7821V15.7761H8.22123V24.2881C8.22123 25.3521 8.28456 26.1121 8.41123 26.5681C8.5379 27.0241 8.85456 27.3281 9.36123 27.4801C9.89323 27.6067 10.7546 27.7207 11.9452 27.8221C11.9959 28.2527 11.9959 28.6581 11.9452 29.0381C11.4386 29.0381 10.8179 29.0254 10.0832 29.0001C9.34856 29.0001 8.6139 29.0001 7.87923 29.0001C7.1699 28.9747 6.57456 28.9621 6.09323 28.9621C5.63723 28.9621 5.0419 28.9747 4.30723 29.0001C3.5979 29.0001 2.8759 29.0001 2.14123 29.0001C1.4319 29.0254 0.823896 29.0381 0.317229 29.0381Z" fill="white"/>
<path d="M37.3233 29.4561C35.6766 29.4561 34.3973 28.9747 33.4853 28.0121C32.5986 27.0241 32.1553 25.6054 32.1553 23.7561V16.0801C32.1553 15.0921 32.1046 14.3574 32.0033 13.8761C31.9273 13.3947 31.6866 13.0527 31.2813 12.8501C30.9013 12.6474 30.2426 12.4827 29.3053 12.3561C29.1786 12.0267 29.1786 11.7101 29.3053 11.4061C30.3946 11.2541 31.4333 11.0894 32.4213 10.9121C33.4346 10.7347 34.448 10.5194 35.4613 10.2661L36.0313 10.5321C36.006 11.3174 35.9806 12.0647 35.9553 12.7741C35.9553 13.4581 35.9553 14.1041 35.9553 14.7121V22.3881C35.9553 23.9081 36.1833 25.0481 36.6393 25.8081C37.1206 26.5427 38.0453 26.9101 39.4133 26.9101C40.1733 26.9101 40.8826 26.7454 41.5413 26.4161C42.2253 26.0614 42.8713 25.5547 43.4793 24.8961V16.0801C43.4793 15.0921 43.4286 14.3574 43.3273 13.8761C43.2513 13.3947 43.0106 13.0527 42.6053 12.8501C42.2253 12.6474 41.5666 12.4827 40.6293 12.3561C40.5533 12.0267 40.5533 11.7101 40.6293 11.4061C41.7186 11.2541 42.7573 11.0894 43.7453 10.9121C44.7586 10.7347 45.7846 10.5194 46.8233 10.2661L47.3933 10.5321C47.368 11.3174 47.3426 12.0647 47.3173 12.7741C47.3173 13.4581 47.3173 14.1041 47.3173 14.7121V24.5541C47.3173 25.3141 47.3553 25.8841 47.4313 26.2641C47.5326 26.6441 47.786 26.9227 48.1913 27.1001C48.622 27.2521 49.3186 27.3787 50.2813 27.4801C50.3066 27.7841 50.3066 28.1007 50.2813 28.4301C49.192 28.5314 48.1533 28.6581 47.1653 28.8101C46.1773 28.9621 45.2146 29.1521 44.2773 29.3801L43.6693 29.1141L43.5933 26.4541C41.4906 28.4554 39.4006 29.4561 37.3233 29.4561Z" fill="white"/>
<path d="M64.7976 29.4941L64.1896 29.2281L64.0376 26.6061C63.1509 27.5687 62.2389 28.2907 61.3016 28.7721C60.3896 29.2281 59.3763 29.4561 58.2616 29.4561C56.6909 29.4561 55.3103 29.0381 54.1196 28.2021C52.9543 27.3407 52.0549 26.2261 51.4216 24.8581C50.7883 23.4901 50.4716 22.0081 50.4716 20.4121C50.4716 18.5627 50.8643 16.8781 51.6496 15.3581C52.4603 13.8381 53.5876 12.6221 55.0316 11.7101C56.5009 10.7727 58.2109 10.3041 60.1616 10.3041C60.7443 10.3041 61.3523 10.3547 61.9856 10.4561C62.6189 10.5321 63.2776 10.6714 63.9616 10.8741V6.01006C63.9616 5.22473 63.8856 4.64206 63.7336 4.26206C63.5816 3.85673 63.2776 3.57806 62.8216 3.42606C62.3909 3.24873 61.7323 3.12206 60.8456 3.04606C60.7696 2.71673 60.7696 2.37473 60.8456 2.02006C61.8589 1.89339 62.8976 1.70339 63.9616 1.45006C65.0256 1.17139 66.1149 0.791392 67.2296 0.310059L67.8756 0.53806C67.8503 1.09539 67.8249 1.72873 67.7996 2.43806C67.7996 3.14739 67.7996 3.92006 67.7996 4.75606V23.6041C67.7996 24.5667 67.8376 25.2887 67.9136 25.7701C67.9896 26.2514 68.2176 26.5934 68.5976 26.7961C68.9776 26.9734 69.6236 27.1381 70.5356 27.2901C70.6116 27.6194 70.6116 27.9614 70.5356 28.3161C69.5222 28.4681 68.5343 28.6327 67.5716 28.8101C66.6089 28.9874 65.6843 29.2154 64.7976 29.4941ZM63.9996 14.1041C62.9103 12.6094 61.4789 11.8621 59.7056 11.8621C57.9576 11.8621 56.6403 12.5081 55.7536 13.8001C54.8669 15.0667 54.4236 16.8274 54.4236 19.0821C54.4236 20.3994 54.6009 21.6661 54.9556 22.8821C55.3103 24.0981 55.8929 25.0987 56.7036 25.8841C57.5143 26.6694 58.5909 27.0621 59.9336 27.0621C61.6309 27.0621 62.9863 26.3274 63.9996 24.8581V14.1041Z" fill="white"/>
<path d="M73.3805 22.9961C73.7605 24.6681 74.3685 25.9474 75.2045 26.8341C76.0405 27.6954 77.1172 28.1261 78.4345 28.1261C79.4225 28.1261 80.2585 27.8981 80.9425 27.4421C81.6265 26.9607 81.9685 26.2134 81.9685 25.2001C81.9685 24.4401 81.7785 23.8321 81.3985 23.3761C81.0439 22.9201 80.5372 22.5401 79.8785 22.2361C79.2452 21.9067 78.5232 21.5774 77.7125 21.2481C76.7752 20.8681 75.8885 20.4627 75.0525 20.0321C74.2419 19.5761 73.5705 19.0187 73.0385 18.3601C72.5319 17.6761 72.2785 16.8021 72.2785 15.7381C72.2785 14.5221 72.5952 13.5214 73.2285 12.7361C73.8872 11.9254 74.7232 11.3174 75.7365 10.9121C76.7752 10.5067 77.8772 10.3041 79.0425 10.3041C79.6252 10.3041 80.2079 10.3421 80.7905 10.4181C81.3732 10.4941 81.6899 10.5321 81.7405 10.5321C82.2472 10.6081 82.7159 10.6587 83.1465 10.6841C83.5772 10.6841 83.8052 10.6841 83.8305 10.6841C83.8559 10.6841 83.9065 10.6841 83.9825 10.6841C84.0839 10.6841 84.2105 10.6714 84.3625 10.6461C84.3625 11.4567 84.3752 12.2801 84.4005 13.1161C84.4259 13.9521 84.4765 14.8387 84.5525 15.7761C84.5272 15.7761 84.4765 15.7761 84.4005 15.7761C84.1725 15.8014 83.9572 15.8267 83.7545 15.8521C83.5772 15.8521 83.3999 15.8394 83.2225 15.8141C82.8932 14.3954 82.3992 13.3694 81.7405 12.7361C81.1072 12.0774 80.2079 11.7481 79.0425 11.7481C78.0039 11.7481 77.1679 11.9761 76.5345 12.4321C75.9265 12.8881 75.6225 13.5214 75.6225 14.3321C75.6225 14.9907 75.8252 15.5354 76.2305 15.9661C76.6359 16.3714 77.1299 16.7134 77.7125 16.9921C78.2952 17.2707 78.8525 17.5114 79.3845 17.7141C80.3725 18.0941 81.3099 18.5247 82.1965 19.0061C83.1085 19.4621 83.8432 20.0574 84.4005 20.7921C84.9832 21.5267 85.2745 22.5147 85.2745 23.7561C85.2745 25.0734 84.9325 26.1627 84.2485 27.0241C83.5899 27.8601 82.7412 28.4807 81.7025 28.8861C80.6639 29.2661 79.5745 29.4561 78.4345 29.4561C77.7759 29.4561 77.1172 29.4054 76.4585 29.3041C75.8252 29.2027 75.4832 29.1521 75.4325 29.1521C75.3819 29.1521 75.1665 29.1267 74.7865 29.0761C74.4319 29.0254 74.0265 28.9747 73.5705 28.9241C73.1399 28.8734 72.7599 28.8481 72.4305 28.8481C72.4305 28.0627 72.3925 27.1887 72.3165 26.2261C72.2659 25.2634 72.2025 24.1994 72.1265 23.0341C72.1772 23.0341 72.2405 23.0341 72.3165 23.0341C72.5445 23.0087 72.7345 22.9961 72.8865 22.9961C73.0639 22.9707 73.2285 22.9707 73.3805 22.9961Z" fill="white"/>
<path d="M96.25 29.4561C94.4007 29.4561 92.7793 29.0634 91.386 28.2781C90.018 27.4674 88.954 26.3654 88.194 24.9721C87.434 23.5534 87.054 21.9321 87.054 20.1081C87.054 18.1321 87.4467 16.4094 88.232 14.9401C89.0427 13.4707 90.17 12.3307 91.614 11.5201C93.058 10.7094 94.7173 10.3041 96.592 10.3041C98.4413 10.3041 100.05 10.7094 101.418 11.5201C102.786 12.3307 103.85 13.4454 104.61 14.8641C105.37 16.2827 105.75 17.8914 105.75 19.6901C105.75 21.5394 105.345 23.2114 104.534 24.7061C103.749 26.1754 102.647 27.3407 101.228 28.2021C99.8093 29.0381 98.15 29.4561 96.25 29.4561ZM91.348 19.6521C91.348 22.2361 91.766 24.2881 92.602 25.8081C93.4633 27.3027 94.7427 28.0501 96.44 28.0501C98.0613 28.0501 99.3027 27.3407 100.164 25.9221C101.025 24.4781 101.456 22.5527 101.456 20.1461C101.456 17.5874 101.025 15.5481 100.164 14.0281C99.3027 12.5081 98.0487 11.7481 96.402 11.7481C94.7807 11.7481 93.5267 12.4447 92.64 13.8381C91.7787 15.2314 91.348 17.1694 91.348 19.6521Z" fill="white"/>
<path d="M117.921 29.0381C117.87 28.6327 117.87 28.2401 117.921 27.8601C118.706 27.8094 119.289 27.7334 119.669 27.6321C120.049 27.5054 120.302 27.2521 120.429 26.8721C120.556 26.4921 120.619 25.8841 120.619 25.0481V17.3721C120.619 15.8521 120.378 14.7247 119.897 13.9901C119.441 13.2301 118.516 12.8501 117.123 12.8501C116.388 12.8501 115.679 12.9894 114.995 13.2681C114.311 13.5214 113.564 14.0154 112.753 14.7501V24.6681C112.753 25.6561 112.804 26.3654 112.905 26.7961C113.032 27.2267 113.285 27.5054 113.665 27.6321C114.045 27.7334 114.64 27.8094 115.451 27.8601C115.502 28.2401 115.502 28.6327 115.451 29.0381C114.742 29.0381 113.994 29.0254 113.209 29.0001C112.449 28.9747 111.626 28.9621 110.739 28.9621C109.928 28.9621 109.13 28.9747 108.345 29.0001C107.56 29.0254 106.787 29.0381 106.027 29.0381C105.951 28.6327 105.951 28.2401 106.027 27.8601C106.888 27.8094 107.522 27.7334 107.927 27.6321C108.332 27.5054 108.598 27.2521 108.725 26.8721C108.852 26.4921 108.915 25.8841 108.915 25.0481V16.5361C108.915 15.5481 108.864 14.8134 108.763 14.3321C108.687 13.8507 108.446 13.5214 108.041 13.3441C107.661 13.1414 107.002 12.9767 106.065 12.8501C105.989 12.4954 105.989 12.1661 106.065 11.8621C108.244 11.4314 110.245 10.8487 112.069 10.1141L112.715 10.3421V13.1921C113.88 12.1281 115.02 11.3807 116.135 10.9501C117.25 10.5194 118.314 10.3041 119.327 10.3041C120.999 10.3041 122.278 10.7981 123.165 11.7861C124.052 12.7741 124.495 14.1927 124.495 16.0421V24.6681C124.495 25.6561 124.546 26.3654 124.647 26.7961C124.774 27.2267 125.027 27.5054 125.407 27.6321C125.787 27.7334 126.395 27.8094 127.231 27.8601C127.282 28.2401 127.282 28.6327 127.231 29.0381C126.471 29.0381 125.724 29.0254 124.989 29.0001C124.28 28.9747 123.444 28.9621 122.481 28.9621C121.544 28.9621 120.72 28.9747 120.011 29.0001C119.327 29.0254 118.63 29.0381 117.921 29.0381Z" fill="white"/>
<path d="M128.467 26.6441C128.467 25.8587 128.733 25.2001 129.265 24.6681C129.797 24.1107 130.443 23.8321 131.203 23.8321C132.065 23.8321 132.749 24.1234 133.255 24.7061C133.787 25.2634 134.053 25.9094 134.053 26.6441C134.053 27.4041 133.787 28.0627 133.255 28.6201C132.749 29.1774 132.065 29.4561 131.203 29.4561C130.443 29.4561 129.797 29.1901 129.265 28.6581C128.733 28.1007 128.467 27.4294 128.467 26.6441Z" fill="white"/>
</svg>
